# xmcd
#
# Track frame offsets: 
#        150
#        9354
#        18526
#        30647
#        43170
#        55322
#        68744
#        81004
#        90694
#        103364
#        112550
#        125976
#        141479
#        153763
#        166031
#        180264
#        192673
#        205519
#        217718
#        229159
#        243919
#        258242
#        274377
#        286345
#        297283
#        309731
#        321564
#        332833
#        343945
#
# Disc length: 4735 seconds
#
# Revision: 0
# Processed by: cddbd v1.5.2PL0 Copyright (c) Steve Scherf et al.
# Submitted via: ExactAudioCopyFreeDBPlugin 1.0
#
DISCID=aa127d1d
DTITLE=Buck Owens - Tall Dark Stranger - CD 03
DYEAR=2012
DGENRE=Country
TTITLE0=Let The World Keep On A Turnin'
TTITLE1=High As The Mountains
TTITLE2=Today I Started Loving You Again
TTITLE3=I've Never Had A Dream Come True Before
TTITLE4=Tennessee Bird Walk
TTITLE5=Then Maybe I Can Get Some Sleep
TTITLE6=Your Tender Loving Care
TTITLE7=Think Of Me
TTITLE8=I Thank Him For Sending Me You
TTITLE9=I Don't Care (Just As Long As You Love Me)
TTITLE10=I Wouldn't Live In New York City
TTITLE11=No Milk And Honey In Baltimore
TTITLE12=Reno Lament
TTITLE13=Houston-Town
TTITLE14=Santo Domingo
TTITLE15=Down In New Orleans
TTITLE16=The Wind Blows Every Day In Chicago
TTITLE17=(It's A Long Way To) Londontown
TTITLE18=The Kansas City Song
TTITLE19=Big In Vegas
TTITLE20=Reno Lament
TTITLE21=No Milk And Honey In Baltimore
TTITLE22=Bridge Over Troubled Water
TTITLE23=I Am A Rock
TTITLE24=Homeward Bound
TTITLE25=The Devil Made Me Do That
TTITLE26=Everything Reminds Me You're Gone
TTITLE27=Catch The Wind
TTITLE28=San Francisco Town
EXTD=
EXTT0=
EXTT1=
EXTT2=
EXTT3=
EXTT4=
EXTT5=
EXTT6=
EXTT7=
EXTT8=
EXTT9=
EXTT10=
EXTT11=
EXTT12=
EXTT13=
EXTT14=
EXTT15=
EXTT16=
EXTT17=
EXTT18=
EXTT19=
EXTT20=
EXTT21=
EXTT22=
EXTT23=
EXTT24=
EXTT25=
EXTT26=
EXTT27=
EXTT28=
PLAYORDER=
